<svg width="26" height="24" viewBox="0 0 26 24" fill="none" xmlns="http://www.w3.org/2000/svg">
<path d="M11.9655 0.927052C12.2649 0.00574136 13.5683 0.00573969 13.8676 0.92705L16.0785 7.73134C16.2124 8.14337 16.5963 8.42233 17.0295 8.42233H24.184C25.1527 8.42233 25.5555 9.66194 24.7718 10.2313L18.9837 14.4366C18.6332 14.6913 18.4866 15.1426 18.6204 15.5547L20.8313 22.359C21.1306 23.2803 20.0762 24.0464 19.2924 23.477L13.5044 19.2717C13.1539 19.0171 12.6793 19.0171 12.3288 19.2717L6.54072 23.477C5.75701 24.0464 4.70253 23.2803 5.00188 22.359L7.21273 15.5547C7.3466 15.1426 7.19995 14.6913 6.84946 14.4366L1.06138 10.2313C0.277668 9.66194 0.680443 8.42233 1.64917 8.42233H8.80362C9.23685 8.42233 9.62081 8.14337 9.75468 7.73134L11.9655 0.927052Z" fill="#F6B644"/>
</svg>
